# xmcd
#
# Track frame offsets:
# 150
# 8235
# 21970
# 33175
# 43225
# 51662
# 66662
# 75457
# 87977
# 99827
# 112357
# 123907
# 136057
# 147567
# 161650
# 173072
# 183215
#
# Disc length: 2606 seconds
#
#
# Revision: 0
# Processed by: cddbd v1.5.1PL0 Copyright (c) Steve Scherf et al.
# Submitted via: FreeRIP 2.941 
#
DISCID=ec0a2c11
DTITLE=Willie Nelson - The Anthology
DYEAR=2004
DGENRE=Country
TTITLE0=Things To Remember
TTITLE1=A Moment Isn't Very Long
TTITLE2=Suffering In Silence
TTITLE3=Healing Hands Of Time
TTITLE4=Slow Down Old World
TTITLE5=The Face Of The Fighter
TTITLE6=Why Are You Picking On Me
TTITLE7=The Shelter Of Your Arms
TTITLE8=I Hope So
TTITLE9=Any Old Arms Won't Do
TTITLE10=December Day
TTITLE11=The Storm Has Just Begun
TTITLE12=What A Way To Live
TTITLE13=Rainy Day Blues
TTITLE14=Night Life
TTITLE15=I'm So Ashamed
TTITLE16=Following Me Around
EXTD=
EXTT0=
EXTT1=
EXTT2=
EXTT3=
EXTT4=
EXTT5=
EXTT6=
EXTT7=
EXTT8=
EXTT9=
EXTT10=
EXTT11=
EXTT12=
EXTT13=
EXTT14=
EXTT15=
EXTT16=
PLAYORDER=
